<?xml version="1.0" encoding="UTF-8"?>
<svg xmlns="http://www.w3.org/2000/svg" style="display: none;">
    <!-- Upload Icon -->
    <symbol id="icon-upload" viewBox="0 0 24 24">
        <path d="M21 15v4a2 2 0 0 1-2 2H5a2 2 0 0 1-2-2v-4M17 8l-5-5-5 5M12 3v12"/>
    </symbol>
    
    <!-- Document/Post Icon -->
    <symbol id="icon-document" viewBox="0 0 24 24">
        <path d="M14 2H6a2 2 0 0 0-2 2v16a2 2 0 0 0 2 2h12a2 2 0 0 0 2-2V8z"/>
        <polyline points="14 2 14 8 20 8"/>
        <line x1="16" y1="13" x2="8" y2="13"/>
        <line x1="16" y1="17" x2="8" y2="17"/>
        <polyline points="10 9 9 9 8 9"/>
    </symbol>
    
    <!-- Preview Icon -->
    <symbol id="icon-eye" viewBox="0 0 24 24">
        <path d="M1 12s4-8 11-8 11 8 11 8-4 8-11 8-11-8-11-8z"/>
        <circle cx="12" cy="12" r="3"/>
    </symbol>
    
    <!-- Success Icon -->
    <symbol id="icon-check" viewBox="0 0 24 24">
        <polyline points="20 6 9 17 4 12"/>
    </symbol>
    
    <!-- Error Icon -->
    <symbol id="icon-x" viewBox="0 0 24 24">
        <line x1="18" y1="6" x2="6" y2="18"/>
        <line x1="6" y1="6" x2="18" y2="18"/>
    </symbol>
    
    <!-- Remove Icon -->
    <symbol id="icon-trash" viewBox="0 0 24 24">
        <polyline points="3 6 5 6 21 6"/>
        <path d="M19 6v14a2 2 0 0 1-2 2H7a2 2 0 0 1-2-2V6m3 0V4a2 2 0 0 1 2-2h4a2 2 0 0 1 2 2v2"/>
    </symbol>
    
    <!-- Edit Icon -->
    <symbol id="icon-edit" viewBox="0 0 24 24">
        <path d="M11 4H4a2 2 0 0 0-2 2v14a2 2 0 0 0 2 2h14a2 2 0 0 0 2-2v-7"/>
        <path d="M18.5 2.5a2.121 2.121 0 0 1 3 3L12 15l-4 1 1-4 9.5-9.5z"/>
    </symbol>
    
    <!-- Plus Icon -->
    <symbol id="icon-plus" viewBox="0 0 24 24">
        <line x1="12" y1="5" x2="12" y2="19"/>
        <line x1="5" y1="12" x2="19" y2="12"/>
    </symbol>
    
    <!-- Image Icon -->
    <symbol id="icon-image" viewBox="0 0 24 24">
        <rect x="3" y="3" width="18" height="18" rx="2" ry="2"/>
        <circle cx="8.5" cy="8.5" r="1.5"/>
        <polyline points="21 15 16 10 5 21"/>
    </symbol>
</svg>